<svg width="250" height="250" xmlns="http://www.w3.org/2000/svg"><path fill="none" d="M-1-1h252v252H-1z"/><path fill-opacity=".33" fill="#C4C4C4" d="M34.893 50.817c-4.774-2.473-10.639-.587-13.107 4.21l-14.4 28.08C4.923 87.9 6.801 93.8 11.57 96.267l18.281 9.437a95.92 95.92 0 00-2.015 24.393l-19.594 6.308C3.13 138.03.298 143.544 1.943 148.67l9.594 30.087c1.63 5.131 7.105 7.98 12.21 6.327l19.611-6.301a96.079 96.079 0 0015.723 18.678l-9.415 18.33c-2.474 4.813-.585 10.703 4.193 13.17l27.955 14.479c4.773 2.463 10.649.567 13.107-4.2l9.414-18.37a95.184 95.184 0 0024.289 2.027l6.26 19.665a9.703 9.703 0 0012.226 6.323l29.95-9.618c5.136-1.642 7.947-7.144 6.302-12.282l-6.256-19.657a95.941 95.941 0 0018.603-15.799l18.27 9.46c4.78 2.456 10.65.587 13.107-4.221l14.405-28.064c2.457-4.787.59-10.686-4.189-13.165l-18.275-9.454a96.408 96.408 0 002.015-24.381l19.568-6.281c5.126-1.654 7.943-7.14 6.319-12.287l-9.589-30.081c-1.635-5.137-7.12-7.965-12.226-6.323l-19.58 6.291a96.474 96.474 0 00-15.737-18.673l9.414-18.34c2.448-4.798.58-10.698-4.182-13.16l-27.96-14.464c-4.784-2.483-10.638-.587-13.122 4.205l-9.395 18.34a95.427 95.427 0 00-24.299-2.017l-6.255-19.68c-1.63-5.121-7.12-7.955-12.237-6.313L71.813 12.55c-5.11 1.647-7.943 7.128-6.308 12.276l6.277 19.658a96.96 96.96 0 00-18.603 15.788l-18.286-9.454zm113.02 29.33c25.154 13.011 35.048 44.067 22.094 69.307-12.975 25.294-43.894 35.207-69.047 22.184-25.18-13.016-35.08-44.067-22.095-69.318 12.955-25.25 43.878-35.19 69.048-22.173z"/></svg>