<svg width="21" height="21" fill="none" xmlns="http://www.w3.org/2000/svg"><path fill-rule="evenodd" clip-rule="evenodd" d="M0 0h21v21H0V0zm15.73 8.7h-1.276v1.306h-1.27v1.313h1.27v1.306h1.276v-1.306H17v-1.313h-1.27V8.7zm-4.153 1.904C11.577 13.177 9.9 15 7.375 15 4.958 15 3 12.986 3 10.5S4.958 6 7.375 6c1.182 0 2.167.442 2.932 1.178L9.119 8.351c-.323-.32-.89-.694-1.743-.694-1.492 0-2.71 1.272-2.71 2.843s1.218 2.842 2.71 2.842c1.731 0 2.382-1.283 2.483-1.94H7.376V9.856h4.13c.041.226.071.454.071.748z" fill="#3E3E3E"/></svg>