<svg width="21" height="21" fill="none" xmlns="http://www.w3.org/2000/svg"><path d="M13.362 3.885H7.636a3.757 3.757 0 00-3.752 3.752v5.726a3.757 3.757 0 003.752 3.752h5.726a3.757 3.757 0 003.752-3.752V7.637a3.757 3.757 0 00-3.752-3.752zM10.499 14.33a3.977 3.977 0 01-3.972-3.972 3.977 3.977 0 013.972-3.972 3.977 3.977 0 013.972 3.972A3.977 3.977 0 0110.5 14.33zm4.861-7.87a.615.615 0 11-1.23 0v-.012a.615.615 0 111.23 0v.012z" fill="#3E3E3E"/><path d="M10.5 13.1a2.742 2.742 0 100-5.483 2.742 2.742 0 000 5.484z" fill="#3E3E3E"/><path d="M20.385 0H.615A.615.615 0 000 .615v19.77c0 .34.275.615.615.615h19.77c.34 0 .615-.276.615-.615V.615A.615.615 0 0020.385 0zm-2.04 13.363a4.989 4.989 0 01-4.982 4.983H7.637a4.989 4.989 0 01-4.983-4.983V7.637a4.989 4.989 0 014.983-4.983h5.726a4.989 4.989 0 014.983 4.983v5.726z" fill="#3E3E3E"/></svg>