<svg width="21" height="21" fill="none" xmlns="http://www.w3.org/2000/svg"><path d="M9.235 15.534c0 .025 0 .058-.014.076a.82.82 0 01-.363.284c-.132.048-.236-.01-.264-.147a.83.83 0 01-.011-.166c0-1.016-.004-3.1-.005-3.125h-.75l.001 3.479c0 .148.016.296.078.434a.432.432 0 00.34.27c.12.021.238.008.353-.031.234-.08.417-.233.579-.415.014-.017.03-.032.057-.061v.455h.751V12.45l-.752.002v3.082zm3.553-2.754c-.159-.338-.492-.428-.78-.355a.865.865 0 00-.434.275.74.74 0 00-.081.129v-1.844h-.753v5.601h.753v-.314l.072.077a.85.85 0 00.642.293c.317.003.539-.15.639-.453a1.37 1.37 0 00.062-.432v-2.349c0-.216-.026-.429-.12-.628zm-.655 2.884a.6.6 0 01-.014.125c-.035.164-.16.238-.336.201a.493.493 0 01-.288-.194v-.06l-.002-2.488s.016-.046.052-.077a.393.393 0 01.308-.115c.104.01.187.058.226.154a.662.662 0 01.052.233c.004.74.003 1.48.002 2.22zM10.08 7.898a.319.319 0 00.319-.319V5.333a.319.319 0 00-.637 0v2.246c0 .176.143.319.318.319zm-2.25 3.088H5.222v.803H6.1v4.798h.85v-4.8h.88v-.801zm7.109 4.132v.532a.336.336 0 11-.671 0v-1.034h1.441s.009-.721.003-1.048a2.22 2.22 0 00-.042-.418c-.075-.354-.265-.62-.621-.738a1.31 1.31 0 00-.327-.059c-.367-.023-.687.081-.938.362-.22.245-.296.541-.297.862-.001.613-.004 1.227.002 1.84.002.157.02.316.055.468.076.327.255.583.57.725.23.105.472.11.717.074.396-.058.665-.27.796-.652.098-.287.086-.914.086-.914h-.774zm-.671-1.723a.336.336 0 01.67 0v.58h-.67v-.58z" fill="#3E3E3E"/><path d="M0 0v21h21V0H0zm11.83 4.377h.765v3.171c0 .042.003.085.01.126.024.13.12.192.246.149a.822.822 0 00.37-.285c.014-.018.012-.051.012-.077V4.377h.77v4.159h-.77v-.447c-.085.084-.158.162-.238.233a1.04 1.04 0 01-.49.254c-.288.056-.533-.035-.625-.333-.03-.1-.049-.207-.05-.31V4.377zm-1.75-.104c.61 0 1.103.494 1.103 1.103v2.16a1.103 1.103 0 11-2.206 0v-2.16c0-.609.494-1.103 1.103-1.103zM7.112 2.906s.35 1.489.518 2.194l.518-2.194h.877L8.05 6.137a.395.395 0 00-.016.113v2.285h-.808V6.25a.397.397 0 00-.016-.113l-.975-3.23h.877zm9.642 13.262a1.879 1.879 0 01-1.839 1.879 206.29 206.29 0 01-8.83 0 1.879 1.879 0 01-1.838-1.88v-4.596c0-1.022.816-1.857 1.837-1.878a205.92 205.92 0 018.832 0 1.879 1.879 0 011.838 1.878v4.597z" fill="#3E3E3E"/></svg>