<svg width="250" height="250" xmlns="http://www.w3.org/2000/svg">

 <g>
  <title>background</title>
  <rect fill="none" id="canvas_background" height="252" width="252" y="-1" x="-1"/>
 </g>
 <g>
  <title>Layer 1</title>
  <path id="svg_1" fill-opacity="0.33" fill="#C4C4C4" d="m34.89258,50.81747c-4.7734,-2.47326 -10.63857,-0.58788 -13.10697,4.21019l-14.3992,28.07952c-2.4631,4.79263 -0.58538,10.69153 4.18261,13.15936l18.28118,9.43753c-1.73529,8.11852 -2.37882,16.29614 -2.01485,24.39338l-19.59436,6.30784c-5.111,1.62512 -7.94329,7.13872 -6.29764,12.26465l9.59413,30.08663c1.6297,5.13184 7.10455,7.98024 12.21025,6.32793l19.61025,-6.30193c4.37766,6.79951 9.64686,13.08608 15.72297,18.67886l-9.41485,18.32902c-2.47369,4.81391 -0.58538,10.70335 4.19321,13.17118l27.95429,14.47836c4.7734,2.46309 10.64905,0.56732 13.10697,-4.19932l9.41474,-18.37157c8.08084,1.7374 16.22877,2.38863 24.28842,2.02815l6.26103,19.66457c1.62441,5.14721 7.10973,7.96487 12.22543,6.3232l29.94913,-9.61836c5.13689,-1.64167 7.94783,-7.14345 6.30223,-12.2812l-6.25515,-19.65748c6.76719,-4.40142 13.03764,-9.69164 18.603,-15.79855l18.26988,9.4588c4.77905,2.45719 10.64929,0.58741 13.10709,-4.22059l14.40426,-28.06321c2.4578,-4.78791 0.59091,-10.68681 -4.18815,-13.16527l-18.27576,-9.45408c1.71975,-8.09134 2.37893,-16.27368 2.01521,-24.38157l19.56822,-6.28066c5.1263,-1.65349 7.94312,-7.1399 6.31871,-12.28711l-9.58871,-30.08072c-1.635,-5.13704 -7.12032,-7.96511 -12.22661,-6.32344l-19.57882,6.29153c-4.38825,-6.79987 -9.66169,-13.08088 -15.73792,-18.67331l9.4145,-18.33977c2.44721,-4.79807 0.58031,-10.69768 -4.18226,-13.1603l-27.95982,-14.46324c-4.78376,-2.48378 -10.63869,-0.58776 -13.12239,4.20499l-9.39449,18.33977c-8.06907,-1.72641 -16.22406,-2.3832 -24.29902,-2.01775l-6.25515,-19.67958c-1.63029,-5.1212 -7.12032,-7.95447 -12.23673,-6.31269l-29.94807,9.62794c-5.11088,1.64699 -7.94324,7.12832 -6.30823,12.27588l6.27657,19.65843c-6.77237,4.41679 -13.02775,9.69152 -18.60288,15.78709l-18.28624,-9.45313zm113.02039,29.32903c25.1536,13.01162 35.04836,44.06741 22.0943,69.30704c-12.97525,25.294 -43.89432,35.20784 -69.04756,22.1844c-25.17996,-13.01635 -35.08002,-44.06741 -22.09453,-69.31768c12.95394,-25.25145 43.87772,-35.19141 69.0478,-22.17376z"/>
 </g>
</svg>